<svg width="24" height="24" viewBox="0 0 24 24" fill="none" xmlns="http://www.w3.org/2000/svg">
<path d="M12.0001 14.5001C11.9016 14.5006 11.8039 14.4813 11.7129 14.4436C11.6219 14.4058 11.5393 14.3502 11.4701 14.2801L8.00009 10.7801C7.9087 10.6391 7.86728 10.4716 7.88247 10.3043C7.89765 10.137 7.96857 9.9796 8.08385 9.85741C8.19913 9.73521 8.3521 9.65525 8.51823 9.63036C8.68437 9.60546 8.85405 9.63705 9.00009 9.72009L12.0001 12.7201L15.0001 9.72009C15.1461 9.63705 15.3158 9.60546 15.482 9.63036C15.6481 9.65525 15.8011 9.73521 15.9163 9.85741C16.0316 9.9796 16.1025 10.137 16.1177 10.3043C16.1329 10.4716 16.0915 10.6391 16.0001 10.7801L12.5001 14.2801C12.3676 14.4145 12.1887 14.4932 12.0001 14.5001Z" fill="#231F20"/>
</svg>
